<svg width="56" height="63" viewBox="0 0 56 63" fill="none" xmlns="http://www.w3.org/2000/svg">
<path d="M26.8852 25.7364L15.5573 34.5092C15.5573 34.5092 7.25885 23.8879 6.25903 21.6697C5.25922 19.4515 1 12.9767 1 12.9767L8.99851 2.98486L26.8852 25.7364Z" fill="#FFFFFF"/>
<path d="M28.7749 25.3969C28.7749 25.3969 38.6631 13.8462 41.3326 8.97021C44.0021 4.08419 44.8919 1.53625 44.8919 1.53625L55.0001 13.4666C55.0001 13.4666 51.8906 19.7415 47.4415 25.3969C43.0023 31.0623 40.3328 34.4995 40.3328 34.4995L28.7749 25.3969Z" fill="#FFFFFF"/>
<path d="M26.8852 25.7361H28.9648L31.4744 27.8044L31.6243 62.0715H23.7058L23.8658 28.0642L26.8852 25.7361Z" fill="#FFFFFF"/>
<path d="M27.6898 32.9713C28.3468 32.9713 28.8795 32.439 28.8795 31.7823C28.8795 31.1256 28.3468 30.5933 27.6898 30.5933C27.0327 30.5933 26.5 31.1256 26.5 31.7823C26.5 32.439 27.0327 32.9713 27.6898 32.9713Z" fill="#838383"/>
<path d="M27.6898 45.3781C28.3469 45.3781 28.8795 44.8457 28.8795 44.189C28.8795 43.5324 28.3469 43 27.6898 43C27.0327 43 26.5 43.5324 26.5 44.189C26.5 44.8457 27.0327 45.3781 27.6898 45.3781Z" fill="#838383"/>
<path d="M27.6898 57.3781C28.3469 57.3781 28.8795 56.8457 28.8795 56.189C28.8795 55.5324 28.3469 55 27.6898 55C27.0327 55 26.5 55.5324 26.5 56.189C26.5 56.8457 27.0327 57.3781 27.6898 57.3781Z" fill="#838383"/>
<path d="M16.842 13.1714L8.99316 3.17669L11.2517 2.2732L27.2884 1.03101L44.7931 1.59566L39.0335 13.1714H16.842Z" fill="#FFFFFF"/>
<path d="M25.4735 24.1025L14.5083 32.5256" stroke="#6B778B" stroke-width="0.5"/>
<path d="M30.5815 24.1025L40.3481 31.6263" stroke="#6B778B" stroke-width="0.5"/>
<path d="M18.235 15.0149L9.0437 22.1064" stroke="#6B778B" stroke-width="0.5"/>
<path d="M37.8201 15.0149L47.1845 22.2002" stroke="#6B778B" stroke-width="0.5"/>
<path d="M21.8044 19.6896L12.0378 27.2134" stroke="#6B778B" stroke-width="0.5"/>
<path d="M34.2502 19.6896L44.0168 27.2134" stroke="#6B778B" stroke-width="0.5"/>
<path d="M14.5656 10.6019L5.97543 17.0735" stroke="#6B778B" stroke-width="0.5"/>
<path d="M40.8354 9.93921L50.6021 17.463" stroke="#6B778B" stroke-width="0.5"/>
<path d="M24.1709 22.5387L14.4043 30.0625" stroke="#6B778B" stroke-width="0.5"/>
<path d="M31.8838 22.5387L41.6504 30.0625" stroke="#6B778B" stroke-width="0.5"/>
<path d="M16.9323 13.451L8.07473 20.3032" stroke="#6B778B" stroke-width="0.5"/>
<path d="M39.1222 13.451L48.2817 20.5208" stroke="#6B778B" stroke-width="0.5"/>
<path d="M20.5022 18.1257L10.7356 25.6495" stroke="#6B778B" stroke-width="0.5"/>
<path d="M35.5524 18.1257L44.8109 25.2232" stroke="#6B778B" stroke-width="0.5"/>
<path d="M13.2636 9.03809L4.92578 15.5394" stroke="#6B778B" stroke-width="0.5"/>
<path d="M41.6504 8.18945L51.417 15.7133" stroke="#6B778B" stroke-width="0.5"/>
<path d="M23.0134 21.0918L13.2468 28.6156" stroke="#6B778B" stroke-width="0.5"/>
<path d="M33.0413 21.0918L42.8079 28.6156" stroke="#6B778B" stroke-width="0.5"/>
<path d="M15.7745 12.0042L6.89038 18.796" stroke="#6B778B" stroke-width="0.5"/>
<path d="M39.9099 11.8274L49.6765 19.3512" stroke="#6B778B" stroke-width="0.5"/>
<path d="M19.3449 16.6788L10.0933 23.7751" stroke="#6B778B" stroke-width="0.5"/>
<path d="M36.7103 16.6788L46.0201 23.8797" stroke="#6B778B" stroke-width="0.5"/>
<path d="M12.1065 7.59119L3.98389 13.8438" stroke="#6B778B" stroke-width="0.5"/>
<path d="M42.8079 6.7168L52.5745 14.2406" stroke="#6B778B" stroke-width="0.5"/>
<path d="M11.1596 5.92725L1.66299 13.2851" stroke="#6B778B" stroke-width="0.5"/>
<path d="M43.4207 4.76758L53.1873 12.2914" stroke="#6B778B" stroke-width="0.5"/>
<path d="M10.3359 4.15674L3.97412 9.27679" stroke="#6B778B" stroke-width="0.5"/>
<path d="M44.4058 3.40942L50.7676 8.52948" stroke="#6B778B" stroke-width="0.5"/>
<path d="M26.8852 25.7364L15.5573 34.5092C15.5573 34.5092 7.25885 23.8879 6.25903 21.6697C5.25922 19.4515 1 12.9767 1 12.9767L8.99851 2.98486L26.8852 25.7364Z" stroke="#6B778B" stroke-width="1.3" stroke-miterlimit="10"/>
<path d="M28.7749 25.3969C28.7749 25.3969 38.6631 13.8462 41.3326 8.97021C44.0021 4.08419 44.8919 1.53625 44.8919 1.53625L55.0001 13.4666C55.0001 13.4666 51.8906 19.7415 47.4415 25.3969C43.0023 31.0623 40.3328 34.4995 40.3328 34.4995L28.7749 25.3969Z" stroke="#6B778B" stroke-width="1.3" stroke-miterlimit="10"/>
<path d="M8.99854 2.97484C8.99854 2.97484 16.997 -0.242549 44.8819 1.53601" stroke="#6B778B" stroke-width="1.3" stroke-miterlimit="10"/>
<path d="M26.8852 25.7361H28.9648L31.4744 27.8044L31.6243 62.0715H23.7058L23.8658 28.0642L26.8852 25.7361Z" stroke="#6B778B" stroke-width="1.3" stroke-miterlimit="10"/>
<path d="M27.6898 32.9713C28.3468 32.9713 28.8795 32.439 28.8795 31.7823C28.8795 31.1256 28.3468 30.5933 27.6898 30.5933C27.0327 30.5933 26.5 31.1256 26.5 31.7823C26.5 32.439 27.0327 32.9713 27.6898 32.9713Z" stroke="#6B778B" stroke-width="1.3" stroke-miterlimit="10"/>
<path d="M27.6898 45.3781C28.3469 45.3781 28.8795 44.8457 28.8795 44.189C28.8795 43.5324 28.3469 43 27.6898 43C27.0327 43 26.5 43.5324 26.5 44.189C26.5 44.8457 27.0327 45.3781 27.6898 45.3781Z" stroke="#6B778B" stroke-width="1.3" stroke-miterlimit="10"/>
<path d="M27.6898 57.3781C28.3469 57.3781 28.8795 56.8457 28.8795 56.189C28.8795 55.5324 28.3469 55 27.6898 55C27.0327 55 26.5 55.5324 26.5 56.189C26.5 56.8457 27.0327 57.3781 27.6898 57.3781Z" stroke="#6B778B" stroke-width="1.3" stroke-miterlimit="10"/>
<path d="M16.8171 12.9164H38.7331" stroke="#6B778B" stroke-width="1.3" stroke-miterlimit="10"/>
</svg>
