<svg width="56" height="64" viewBox="0 0 56 64" fill="none" xmlns="http://www.w3.org/2000/svg">
<path fill-rule="evenodd" clip-rule="evenodd" d="M26.3815 63.1399H32.8C32.8009 63.0168 32.8019 62.8614 32.8031 62.6761C32.8366 57.4487 33.0228 28.4228 35.0642 29.0948C35.8591 29.3565 40.3004 37.8166 40.3004 37.8166C40.3004 37.8166 40.6717 37.6073 43.2089 35.4899C45.4083 33.6544 46.8529 31.3434 49.0249 27.8689C49.3585 27.3351 49.7093 26.7739 50.0827 26.1827C52.8865 21.7433 55 12.3839 55 12.3839C54.7555 12.1999 54.5254 12.0141 54.2924 11.826C54.0449 11.6261 53.7941 11.4237 53.5196 11.2181C52.8902 10.7451 52.3114 10.0758 51.5184 9.15871C50.7159 8.23075 49.6941 7.04913 48.1786 5.56057C45.1654 2.60095 37.7015 1.37114 28.5 1C19 1 9.99207 3.18145 7.76904 5.56057C5.55078 7.93968 1 12.4886 1 12.4886C1 12.4886 1.89968 18.3555 6.23625 26.7109C10.5728 35.0616 15.8091 37.7072 15.8091 37.7072C15.8091 37.7072 20.7835 29.0853 21.2024 29.1947C24.4431 30.0414 26.0506 40.6606 26.2958 43.7692C26.5902 47.5002 26.3815 63.1399 26.3815 63.1399ZM10.968 13.7421L14.5938 18.7362L19.1091 22.7041L24.4452 24.8248L26.7712 26.9456L27.729 32.2133L29.1656 27.9718L30.4655 24.8248L33.8176 23.9355L38.9485 20.7885L44.4215 13.7421L38.9485 12.5791L32.1073 11.6897H26.1555L17.5604 12.1707L12.0876 13.1398L10.968 13.7421Z" fill="#FFFFFF"/>
<path d="M29.6904 43.9475C30.5189 43.9475 31.1904 43.2762 31.1904 42.4481C31.1904 41.62 30.5189 40.9487 29.6904 40.9487C28.862 40.9487 28.1904 41.62 28.1904 42.4481C28.1904 43.2762 28.862 43.9475 29.6904 43.9475Z" fill="#FFFFFF"/>
<path d="M29.6855 58.8923C30.514 58.8923 31.1855 58.221 31.1855 57.3929C31.1855 56.5648 30.514 55.8936 29.6855 55.8936C28.8571 55.8936 28.1855 56.5648 28.1855 57.3929C28.1855 58.221 28.8571 58.8923 29.6855 58.8923Z" fill="#FFFFFF"/>
<path d="M32.8 63.1399H26.3815C26.3815 63.1399 26.5902 47.5002 26.2958 43.7692C26.0506 40.6606 24.4431 30.0414 21.2024 29.1947C20.7835 29.0853 15.8091 37.7072 15.8091 37.7072C15.8091 37.7072 10.5728 35.0616 6.23625 26.7109C1.89968 18.3555 1 12.4886 1 12.4886C1 12.4886 5.55078 7.93968 7.76904 5.56057C9.99207 3.18145 19 1 28.5 1C37.7015 1.37114 45.1654 2.60095 48.1786 5.56057C51.1918 8.52019 52.2534 10.2665 53.5196 11.2181C54.0525 11.6171 54.4957 12.0044 55 12.3839C55 12.3839 52.8865 21.7433 50.0827 26.1827C47.2789 30.6222 45.7461 33.3724 43.2089 35.4899C40.6717 37.6073 40.3004 37.8166 40.3004 37.8166C40.3004 37.8166 35.8591 29.3565 35.0642 29.0948C32.9505 28.3989 32.8257 59.544 32.8 63.1399Z" stroke="#6B778B" stroke-width="1.3" stroke-miterlimit="10"/>
<path d="M9.99998 6.75037C11.5002 5.75037 13.5 3.00037 28 3.00037C42.5 3.50023 44.5001 5.77106 46.1603 6.75037C47.2885 7.73532 48.0644 8.08719 46.1603 11.2609C44.2562 14.4347 40.8003 18.9455 39.2485 20.3539C37.6966 21.7623 35.7211 23.6656 33.2553 23.9511C30.7848 24.2319 29.4472 24.3746 29.1663 26.4873C29.0521 27.3533 28.5475 30.4128 27.9953 33.7198C27.1956 38.4875 26.2959 43.7692 26.2959 43.7692C26.2959 43.7692 28.4618 27.6102 26.4863 25.7783C24.5108 23.9464 23.0304 24.3699 21.4785 23.6656C19.9267 22.9614 15.4854 20.7774 11.3916 14.2919C8.3671 9.50037 8.49975 7.75037 9.99998 6.75037Z" stroke="#6B778B" stroke-width="1.3" stroke-miterlimit="10"/>
<path d="M21.1975 29.1996C21.1975 29.1996 25.1104 20.0686 27.3144 30.432" stroke="#6B778B" stroke-width="1.3" stroke-miterlimit="10"/>
<path d="M35.0544 29.0949C35.0544 29.0949 30.4227 18.7124 28.2283 32.3257" stroke="#6B778B" stroke-width="1.3" stroke-miterlimit="10"/>
<path d="M10.9153 13.5021C10.9153 13.5021 30.1418 8.73907 44.4463 13.8922" stroke="#6B778B" stroke-width="1.3" stroke-miterlimit="10"/>
<path d="M29.6904 43.9475C30.5189 43.9475 31.1904 43.2762 31.1904 42.4481C31.1904 41.62 30.5189 40.9487 29.6904 40.9487C28.862 40.9487 28.1904 41.62 28.1904 42.4481C28.1904 43.2762 28.862 43.9475 29.6904 43.9475Z" stroke="#6B778B" stroke-width="1.3" stroke-miterlimit="10"/>
<path d="M29.6855 58.8923C30.514 58.8923 31.1855 58.221 31.1855 57.3929C31.1855 56.5648 30.514 55.8936 29.6855 55.8936C28.8571 55.8936 28.1855 56.5648 28.1855 57.3929C28.1855 58.221 28.8571 58.8923 29.6855 58.8923Z" stroke="#6B778B" stroke-width="1.3" stroke-miterlimit="10"/>
</svg>
