<svg width="56" height="51" viewBox="0 0 56 51" fill="none" xmlns="http://www.w3.org/2000/svg">
<path d="M24.7679 50.2514C24.7679 50.2514 24.9539 32.3007 25.9814 28C27.0089 23.6993 27.8504 19.6794 29.3444 19.0263C30.8383 18.3731 37.6557 17.903 37.6557 17.903C37.6557 17.903 33.6403 22.2037 32.8933 34.0772C32.1463 45.9507 31.8658 50.2514 31.8658 50.2514H24.7679Z" fill="#FFFFFF"/>
<path d="M24.7679 42.8648C24.7679 42.8648 22.9934 26.8767 21.219 22.7653C19.4445 18.6508 18.978 17.903 18.978 17.903C18.978 17.903 25.7954 18.3699 26.5424 18.9316C27.2893 19.4932 27.9229 20.9478 27.9229 20.9478" fill="#FFFFFF"/>
<path d="M32.616 18.3827C32.616 18.3827 32.0991 12.9934 34.6899 12.1509C37.2807 11.3085 41.4852 9.41526 43.7955 7.52206C46.1058 5.62887 47.7888 4.08591 48.5579 2.82378C49.3269 1.56165 49.7493 1 49.7493 1C49.7493 1 51.1487 1.49223 52.6899 2.82378C54.2311 4.15533 55.0002 4.71698 55.0002 4.71698C55.0002 4.71698 53.8781 7.73347 50.8681 10.3272C47.855 12.9208 37.6526 17.8999 37.6526 17.8999" fill="#FFFFFF"/>
<path d="M23.4503 18.3133C23.4503 18.3133 25.0956 13.9747 21.4521 12.1509C17.8086 10.3272 12.8382 8.43395 11.1551 6.54076C9.47522 4.64756 6.53143 1 6.53143 1C6.53143 1 5.97041 1.06942 5.13203 1.70048C4.29049 2.33155 1 4.64441 1 4.64441C1 4.64441 4.15181 10.324 8.14516 12.6369C12.1385 14.9497 18.9779 17.8968 18.9779 17.8968" fill="#FFFFFF"/>
<path d="M31.3738 23.3017C31.9151 23.3017 32.354 22.8624 32.354 22.3204C32.354 21.7785 31.9151 21.3391 31.3738 21.3391C30.8324 21.3391 30.3936 21.7785 30.3936 22.3204C30.3936 22.8624 30.8324 23.3017 31.3738 23.3017Z" fill="#838383"/>
<path d="M28.7611 36.8792C29.3025 36.8792 29.7413 36.4399 29.7413 35.8979C29.7413 35.356 29.3025 34.9166 28.7611 34.9166C28.2197 34.9166 27.7809 35.356 27.7809 35.8979C27.7809 36.4399 28.2197 36.8792 28.7611 36.8792Z" fill="#838383"/>
<path d="M12.291 7.71938L6.95874 1.49856L24.8662 2.93246L37.7599 2.54948L49.5046 1.23035L44.8237 6.93249L39.7174 10.3368L18.1003 10.0814L12.291 7.71938Z" fill="#FFFFFF"/>
<path d="M24.7679 50.2514C24.7679 50.2514 24.9539 32.3007 25.9814 28C27.0089 23.6993 27.8504 19.6794 29.3444 19.0263C30.8383 18.3731 37.6557 17.903 37.6557 17.903C37.6557 17.903 33.6403 22.2037 32.8933 34.0772C32.1463 45.9507 31.8658 50.2514 31.8658 50.2514H24.7679Z" stroke="#6B778B" stroke-width="1.3" stroke-miterlimit="10"/>
<path d="M24.7679 42.8648C24.7679 42.8648 22.9934 26.8767 21.219 22.7653C19.4445 18.6508 18.978 17.903 18.978 17.903C18.978 17.903 25.7954 18.3699 26.5424 18.9316C27.2893 19.4932 27.9229 20.9478 27.9229 20.9478" stroke="#6B778B" stroke-width="1.3" stroke-miterlimit="10"/>
<path d="M32.616 18.3827C32.616 18.3827 32.0991 12.9934 34.6899 12.1509C37.2807 11.3085 41.4852 9.41526 43.7955 7.52206C46.1058 5.62887 47.7888 4.08591 48.5579 2.82378C49.3269 1.56165 49.7493 1 49.7493 1C49.7493 1 51.1487 1.49223 52.6899 2.82378C54.2311 4.15533 55.0002 4.71698 55.0002 4.71698C55.0002 4.71698 53.8781 7.73347 50.8681 10.3272C47.855 12.9208 37.6526 17.8999 37.6526 17.8999" stroke="#6B778B" stroke-width="1.3" stroke-miterlimit="10"/>
<path d="M23.4503 18.3133C23.4503 18.3133 25.0956 13.9747 21.4521 12.1509C17.8086 10.3272 12.8382 8.43395 11.1551 6.54076C9.47522 4.64756 6.53143 1 6.53143 1C6.53143 1 5.97041 1.06942 5.13203 1.70048C4.29049 2.33155 1 4.64441 1 4.64441C1 4.64441 4.15181 10.324 8.14516 12.6369C12.1385 14.9497 18.9779 17.8968 18.9779 17.8968" stroke="#6B778B" stroke-width="1.3" stroke-miterlimit="10"/>
<path d="M6.53442 1.00317C6.53442 1.00317 30.4882 5.42063 49.7489 1.00317" stroke="#6B778B" stroke-width="1.3" stroke-miterlimit="10"/>
<path d="M12.9014 7.92297C12.9014 7.92297 27.2137 8.88219 43.2785 7.92297" stroke="#6B778B" stroke-width="1.3" stroke-miterlimit="10"/>
<path d="M16.5479 9.8446C16.5479 9.8446 32.9089 10.9616 39.8586 9.98028" stroke="#6B778B" stroke-width="1.3" stroke-miterlimit="10"/>
<path d="M31.3738 23.3017C31.9151 23.3017 32.354 22.8624 32.354 22.3204C32.354 21.7785 31.9151 21.3391 31.3738 21.3391C30.8324 21.3391 30.3936 21.7785 30.3936 22.3204C30.3936 22.8624 30.8324 23.3017 31.3738 23.3017Z" stroke="#6B778B" stroke-width="1.3" stroke-miterlimit="10"/>
<path d="M28.7611 36.8792C29.3025 36.8792 29.7413 36.4399 29.7413 35.8979C29.7413 35.356 29.3025 34.9166 28.7611 34.9166C28.2197 34.9166 27.7809 35.356 27.7809 35.8979C27.7809 36.4399 28.2197 36.8792 28.7611 36.8792Z" stroke="#6B778B" stroke-width="1.3" stroke-miterlimit="10"/>
<path d="M25.2159 23.5803C25.2765 23.5583 25.1187 22.9694 24.8634 22.265C24.6082 21.5605 24.3522 21.0073 24.2916 21.0293C24.2311 21.0513 24.3889 21.6402 24.6442 22.3446C24.8994 23.0491 25.1554 23.6023 25.2159 23.5803Z" stroke="#6B778B" stroke-width="1.3" stroke-miterlimit="10"/>
</svg>
