<?xml version="1.0" encoding="iso-8859-1"?>
<!-- Uploaded to: SVG Repo, www.svgrepo.com, Generator: SVG Repo Mixer Tools -->
<svg fill="#000000" height="800px" width="800px" version="1.1" id="Layer_1" xmlns="http://www.w3.org/2000/svg" xmlns:xlink="http://www.w3.org/1999/xlink" 
	 viewBox="0 0 512 512" xml:space="preserve">
<g>
	<g>
		<g>
			<path d="M391.3,106.633c-0.188-0.324-0.401-0.631-0.623-0.922c-0.282-0.358-6.895-8.866-15.411-17.604h-0.009v-0.009
				c-1.178-1.195-2.381-2.398-3.618-3.593c-0.819-0.785-1.596-1.459-2.389-2.193c-0.529-0.486-1.075-0.998-1.596-1.459
				c-1.886-1.673-3.712-3.174-5.47-4.506c-0.538-0.41-1.058-0.759-1.596-1.135c-1.306-0.939-2.577-1.775-3.823-2.517
				c-0.572-0.341-1.161-0.717-1.724-1.024c-1.459-0.785-2.884-1.442-4.258-1.963c-0.247-0.094-0.521-0.265-0.759-0.35
				c-0.341-9.958-3.072-26.837-15.932-41.626C318.101,9.335,291.801,0,255.927,0s-62.174,9.335-78.165,27.733
				c-12.86,14.78-15.582,31.667-15.932,41.626c-0.64,0.23-1.306,0.666-1.954,0.956c-0.606,0.265-1.195,0.563-1.792,0.879
				c-0.981,0.512-1.954,1.015-2.944,1.647c-1.442,0.905-2.859,1.92-4.258,2.995c-0.538,0.41-1.084,0.845-1.621,1.289
				c-1.749,1.417-3.473,2.901-5.137,4.454c-0.188,0.179-0.393,0.367-0.58,0.546c-0.87,0.819-1.741,1.638-2.586,2.466
				c-1.178,1.161-2.347,2.338-3.49,3.507l-0.009,0.009c-0.009,0.009-0.009,0.009-0.017,0.017
				c-8.516,8.73-15.121,17.229-15.394,17.587c-0.043,0.043-0.051,0.102-0.085,0.154c-0.137,0.179-0.29,0.384-0.35,0.461
				c-51.328,80.043-54.357,281.498-53.35,362.897c0.009,0.572,0.017,1.143,0.017,1.715c0.009,0.154,0.009,0.299,0.009,0.444
				c0.239,19.917,0.742,32.299,0.751,32.444c0.188,4.565,3.951,8.175,8.525,8.175h0.034h34.099h0.034
				c3.448,0,6.562-2.082,7.876-5.265l22.11-53.385c0.649,0.597,1.263,1.229,1.929,1.801c0.444,0.375,0.896,0.717,1.348,1.075v38.707
				c0,9.412,7.654,17.067,17.067,17.067h187.733c9.412,0,17.067-7.654,17.067-17.067v-38.007c0.691-0.538,1.391-1.067,2.065-1.638
				c0.725-0.614,1.382-1.297,2.082-1.937l5.035,12.169l17.067,41.216c1.323,3.183,4.437,5.265,7.885,5.265h34.133
				c1.169,0,2.278-0.239,3.285-0.657c0.427-0.179,0.751-0.512,1.135-0.751c0.538-0.333,1.118-0.606,1.57-1.05
				c0.324-0.324,0.503-0.751,0.776-1.126c0.367-0.503,0.802-0.964,1.058-1.553c0.171-0.393,0.171-0.862,0.282-1.289
				c0.171-0.631,0.41-1.246,0.427-1.929C443.908,491.529,449.087,205.696,391.3,106.633z M123.686,452.267H85.303
				c-0.043-25.387,0.393-58.249,2.108-93.867h38.519c0.341,25.95,0.947,53.794,1.937,83.772L123.686,452.267z M125.828,264.533
				H95.039c6.81-56.098,18.167-109.167,36.941-142.421C129.608,149.231,126.655,195.814,125.828,264.533z M207.099,52.343
				c2.867-5.965,8.764-9.677,15.386-9.677h66.884c6.622,0,12.518,3.712,15.386,9.677c2.867,5.965,2.082,12.885-2.057,18.048
				l-17.92,22.4c-4.881,6.11-12.169,9.609-19.985,9.609h-17.732c-7.825,0-15.112-3.499-19.994-9.617L209.156,70.4
				C205.017,65.229,204.232,58.308,207.099,52.343z M281.706,136.533c0,4.719-3.814,8.533-8.533,8.533h-34.133
				c-4.71,0-8.533-3.814-8.533-8.533s3.823-8.533,8.533-8.533h34.133C277.892,128,281.706,131.814,281.706,136.533z
				 M158.655,445.278c-0.06-0.043-0.128-0.06-0.188-0.102c-0.205-0.154-0.418-0.29-0.623-0.444
				c-0.631-0.486-1.237-0.998-1.852-1.502c-1.451-1.186-2.85-2.423-4.215-3.721c-0.563-0.529-1.135-1.058-1.681-1.604
				c-1.809-1.835-3.567-3.729-5.197-5.751c-0.341-10.385-0.631-20.659-0.896-30.857c-0.034-1.314-0.068-2.645-0.102-3.951
				c-0.247-10.035-0.461-19.977-0.64-29.807c-0.017-0.93-0.026-1.86-0.043-2.782c-0.171-10.155-0.307-20.198-0.401-30.089
				c0-0.307,0-0.606-0.009-0.913c-0.085-9.634-0.128-19.123-0.128-28.484c0-2.21,0.008-4.395,0.008-6.579
				c0.017-4.779,0.043-9.481,0.077-14.08c0.026-2.458,0.043-4.915,0.06-7.339c0.137-13.645,0.341-26.556,0.623-38.596
				c0-0.077,0-0.154,0.008-0.23c0.137-6.093,0.299-11.955,0.461-17.638c0.017-0.529,0.034-1.067,0.051-1.587
				c0.171-5.615,0.35-11.025,0.546-16.247c0.043-1.067,0.085-2.074,0.119-3.123c0.145-3.618,0.29-7.125,0.435-10.539
				c0.094-2.142,0.188-4.258,0.282-6.323c0.094-1.954,0.188-3.831,0.282-5.717c2.236-45.329,5.069-71.287,6.033-79.258
				c1.186-1.178,2.236-2.176,3.268-3.149c0.418-0.393,0.853-0.819,1.246-1.178c0.649-0.589,1.212-1.084,1.792-1.596
				c0.759-0.657,1.536-1.34,2.202-1.869c0.043-0.043,0.077-0.068,0.12-0.102c0.657-0.521,1.195-0.913,1.766-1.34V179.2
				c0,4.719,3.823,8.533,8.533,8.533s8.533-3.814,8.533-8.533v-55.398c16.452,51.516,25.6,115.797,25.6,183.398
				c0,53.538-5.828,105.779-16.887,151.663c-0.119-0.026-0.23-0.043-0.35-0.077c-0.333-0.085-0.666-0.188-1.007-0.273
				c-2.048-0.503-4.062-1.084-6.059-1.749c-0.828-0.282-1.647-0.589-2.458-0.896c-1.596-0.597-3.166-1.254-4.719-1.954
				c-1.084-0.495-2.176-0.998-3.243-1.553c-0.853-0.427-1.681-0.922-2.526-1.382C164.449,449.28,161.488,447.403,158.655,445.278z
				 M349.793,494.933H162.06v-27.426c0.435,0.222,0.896,0.375,1.34,0.597c0.307,0.154,0.606,0.324,0.913,0.469
				c1.656,0.794,3.354,1.493,5.06,2.176c1.365,0.563,2.722,1.152,4.104,1.647c0.085,0.026,0.162,0.068,0.239,0.094
				c0.998,0.35,2.031,0.614,3.046,0.913c2.236,0.708,4.471,1.442,6.758,1.98h0.009c0.384,0.094,0.794,0.128,1.186,0.213
				c6.528,1.442,13.21,2.27,20.011,2.27h103.27c11.64,0,22.989-2.244,33.69-6.426c0.171-0.068,0.35-0.128,0.529-0.196
				c2.099-0.828,4.173-1.707,6.212-2.68c0.171-0.085,0.341-0.179,0.521-0.265c0.273-0.137,0.572-0.23,0.845-0.367V494.933z
				 M369.915,331.665c-0.009,1.459-0.017,2.91-0.034,4.386c-0.085,9.224-0.213,18.569-0.367,28.032
				c-0.026,1.306-0.051,2.628-0.068,3.951c-0.171,9.677-0.384,19.456-0.623,29.355c-0.034,1.229-0.068,2.483-0.102,3.712
				c-0.265,10.257-0.555,20.599-0.896,31.053c-1.647,2.031-3.413,3.951-5.248,5.794c-0.529,0.538-1.084,1.041-1.63,1.562
				c-1.399,1.323-2.833,2.603-4.326,3.814c-0.58,0.478-1.161,0.956-1.758,1.417c-0.512,0.393-1.058,0.725-1.579,1.109
				c-3.217,2.355-6.588,4.42-10.052,6.229c-0.196,0.102-0.384,0.222-0.58,0.324c-3.371,1.724-6.852,3.174-10.411,4.378
				c-0.648,0.213-1.323,0.367-1.98,0.572c-2.048,0.631-4.147,1.067-6.246,1.519c-11.059-45.875-16.887-98.116-16.887-151.672
				c0-67.601,9.148-131.883,25.6-183.398V179.2c0,4.719,3.823,8.533,8.533,8.533c4.71,0,8.533-3.814,8.533-8.533V88.457
				c0.529,0.367,1.067,0.734,1.647,1.169c0.256,0.188,0.478,0.341,0.751,0.546c0.725,0.555,1.562,1.254,2.389,1.946
				c0.435,0.367,0.836,0.7,1.306,1.101c0.794,0.691,1.681,1.527,2.569,2.355c0.785,0.734,1.536,1.408,2.389,2.244
				c0.068,0.068,0.145,0.137,0.213,0.205c0.102,0.853,0.222,1.911,0.367,3.166c0,0.017,0.008,0.043,0.008,0.06
				c0.12,1.101,0.265,2.415,0.418,3.823c0.034,0.333,0.068,0.674,0.102,1.024c0.162,1.553,0.333,3.226,0.521,5.12v0.017
				c0.188,1.98,0.401,4.181,0.606,6.536c0.034,0.299,0.06,0.623,0.085,0.93c0.196,2.159,0.393,4.471,0.597,6.946
				c0.026,0.299,0.051,0.597,0.077,0.913c0.469,5.743,0.956,12.279,1.451,19.661v0.017c2.014,29.986,4.036,73.549,4.608,131.533
				c0,0.606,0.009,1.22,0.009,1.826c0.06,6.289,0.102,12.757,0.119,19.379c0.009,2.116,0.017,4.232,0.017,6.366
				C370.034,313.984,369.992,322.773,369.915,331.665z M415.039,264.533h-28.177c-0.819-67.772-3.695-114.108-6.042-141.338
				C397.563,156.843,408.238,209.263,415.039,264.533z M389.03,452.267l-4.181-10.095c0.99-29.952,1.604-57.813,1.937-83.772h36.471
				c2.065,35.618,2.953,68.471,3.294,93.867H389.03z"/>
			<path d="M331.022,336.218c-2.825-3.78-8.158-4.531-11.947-1.707c-3.772,2.825-4.54,8.175-1.707,11.938l25.6,34.133
				c1.673,2.244,4.241,3.413,6.835,3.413c1.775,0,3.576-0.555,5.112-1.707c3.772-2.825,4.531-8.175,1.707-11.938L331.022,336.218z"
				/>
			<path d="M168.887,380.587l25.6-34.133c2.825-3.772,2.065-9.122-1.707-11.947s-9.122-2.065-11.947,1.707l-25.6,34.133
				c-2.825,3.772-2.065,9.122,1.707,11.947c1.536,1.152,3.337,1.707,5.112,1.707C164.646,384,167.206,382.822,168.887,380.587z"/>
			<path d="M247.064,85.333h17.724c2.603,0,5.035-1.169,6.665-3.209l17.92-22.391h-66.893l17.92,22.391
				C242.029,84.164,244.453,85.333,247.064,85.333z"/>
		</g>
	</g>
</g>
</svg>