<svg width="50" height="67" viewBox="0 0 50 67" fill="none" xmlns="http://www.w3.org/2000/svg">
<mask id="path-1-inside-1_46_8" fill="white">
<path fill-rule="evenodd" clip-rule="evenodd" d="M12.2244 0.0803223L0.818359 4.82293C0.818359 4.82293 3.80979 6.52455 4.36636 13.2697C4.92294 20.0149 4.36636 24.3004 4.36636 24.3004V66.6415H24.9249H24.9251H45.4836V24.0315C45.4836 24.0315 44.927 20.0149 45.4836 13.2697C46.0402 6.52455 49.0316 4.82293 49.0316 4.82293L37.6255 0.0803223H24.9251H24.9249H12.2244Z"/>
</mask>
<path fill-rule="evenodd" clip-rule="evenodd" d="M12.2244 0.0803223L0.818359 4.82293C0.818359 4.82293 3.80979 6.52455 4.36636 13.2697C4.92294 20.0149 4.36636 24.3004 4.36636 24.3004V66.6415H24.9249H24.9251H45.4836V24.0315C45.4836 24.0315 44.927 20.0149 45.4836 13.2697C46.0402 6.52455 49.0316 4.82293 49.0316 4.82293L37.6255 0.0803223H24.9251H24.9249H12.2244Z" fill="#FFFFFF"/>
<path d="M0.818359 4.82293L0.434429 3.89957L-1.44997 4.68309L0.323922 5.69214L0.818359 4.82293ZM12.2244 0.0803223V-0.919678H12.0248L11.8405 -0.84304L12.2244 0.0803223ZM4.36636 13.2697L3.36975 13.352L4.36636 13.2697ZM4.36636 24.3004L3.37469 24.1716L3.36636 24.2358V24.3004H4.36636ZM4.36636 66.6415H3.36636V67.6415H4.36636V66.6415ZM45.4836 66.6415V67.6415H46.4836V66.6415H45.4836ZM45.4836 24.0315H46.4836V23.9626L46.4741 23.8943L45.4836 24.0315ZM45.4836 13.2697L46.4802 13.352V13.352L45.4836 13.2697ZM49.0316 4.82293L49.526 5.69214L51.2999 4.68309L49.4155 3.89957L49.0316 4.82293ZM37.6255 0.0803223L38.0094 -0.84304L37.8251 -0.919678H37.6255V0.0803223ZM1.20229 5.74629L12.6084 1.00368L11.8405 -0.84304L0.434429 3.89957L1.20229 5.74629ZM5.36298 13.1875C5.07285 9.6714 4.14093 7.39782 3.22424 5.97522C2.76732 5.26614 2.31983 4.77739 1.97001 4.45688C1.79539 4.29689 1.6458 4.17945 1.53246 4.09781C1.4758 4.057 1.42824 4.02515 1.39116 4.00142C1.37262 3.98956 1.3567 3.97972 1.34359 3.97181C1.33703 3.96785 1.33117 3.96437 1.32603 3.96136C1.32346 3.95985 1.32107 3.95847 1.31886 3.95719C1.31776 3.95655 1.3167 3.95595 1.31569 3.95537C1.31519 3.95508 1.31446 3.95466 1.31421 3.95452C1.3135 3.95411 1.3128 3.95371 0.818359 4.82293C0.323922 5.69214 0.323244 5.69175 0.322577 5.69137C0.32237 5.69126 0.321714 5.69088 0.3213 5.69064C0.32047 5.69017 0.319686 5.68972 0.318945 5.68929C0.317464 5.68843 0.31616 5.68768 0.315031 5.68701C0.312772 5.68569 0.311211 5.68476 0.310329 5.68422C0.308565 5.68316 0.309514 5.6837 0.313022 5.68595C0.320035 5.69043 0.337281 5.70174 0.363509 5.72063C0.415931 5.75839 0.504403 5.82659 0.618918 5.93151C0.847388 6.14085 1.18254 6.49908 1.54305 7.05855C2.26121 8.17305 3.1033 10.1229 3.36975 13.352L5.36298 13.1875ZM4.36636 24.3004C5.35803 24.4292 5.35806 24.429 5.35808 24.4288C5.35809 24.4288 5.35812 24.4285 5.35814 24.4284C5.35819 24.428 5.35824 24.4276 5.3583 24.4272C5.35842 24.4262 5.35858 24.425 5.35876 24.4235C5.35914 24.4206 5.35964 24.4166 5.36027 24.4116C5.36152 24.4015 5.36326 24.3874 5.36544 24.3691C5.3698 24.3326 5.37591 24.2797 5.38337 24.2109C5.39828 24.0733 5.41858 23.8721 5.44098 23.6108C5.48577 23.0883 5.539 22.3255 5.57442 21.3508C5.64525 19.4018 5.64491 16.6042 5.36298 13.1875L3.36975 13.352C3.64439 16.6804 3.64406 19.3981 3.57574 21.2782C3.54158 22.2181 3.49046 22.9482 3.44829 23.44C3.4272 23.6859 3.40837 23.8722 3.39502 23.9953C3.38834 24.0569 3.38304 24.1027 3.37952 24.1322C3.37776 24.147 3.37644 24.1577 3.37562 24.1643C3.37521 24.1676 3.37492 24.1698 3.37476 24.1711C3.37469 24.1717 3.37464 24.172 3.37463 24.1721C3.37462 24.1722 3.37462 24.1721 3.37463 24.1721C3.37464 24.172 3.37465 24.1719 3.37466 24.1719C3.37467 24.1718 3.37469 24.1716 4.36636 24.3004ZM5.36636 66.6415V24.3004H3.36636V66.6415H5.36636ZM24.9249 65.6415H4.36636V67.6415H24.9249V65.6415ZM24.9249 67.6415H24.9251V65.6415H24.9249V67.6415ZM24.9251 67.6415H45.4836V65.6415H24.9251V67.6415ZM46.4836 66.6415V24.0315H44.4836V66.6415H46.4836ZM45.4836 24.0315C46.4741 23.8943 46.4741 23.8944 46.4742 23.8946C46.4742 23.8946 46.4742 23.8947 46.4742 23.8948C46.4742 23.8949 46.4742 23.895 46.4742 23.8949C46.4742 23.8949 46.4742 23.8947 46.4741 23.8942C46.474 23.8931 46.4737 23.8912 46.4733 23.8882C46.4725 23.8823 46.4712 23.8725 46.4695 23.8589C46.4661 23.8317 46.4608 23.7892 46.4542 23.7316C46.441 23.6165 46.4223 23.4414 46.4013 23.2087C46.3593 22.7433 46.3083 22.0478 46.2742 21.1424C46.206 19.3315 46.2055 16.6812 46.4802 13.352L44.487 13.1875C44.2051 16.6034 44.2046 19.334 44.2756 21.2177C44.311 22.1596 44.3644 22.8899 44.4094 23.3884C44.4318 23.6377 44.4522 23.829 44.4673 23.9599C44.4748 24.0254 44.481 24.0757 44.4854 24.1106C44.4876 24.1281 44.4894 24.1417 44.4907 24.1514C44.4913 24.1562 44.4919 24.1601 44.4923 24.163C44.4925 24.1645 44.4926 24.1657 44.4927 24.1666C44.4928 24.1671 44.4929 24.1675 44.4929 24.1679C44.4929 24.1681 44.493 24.1683 44.493 24.1684C44.493 24.1686 44.493 24.1688 45.4836 24.0315ZM46.4802 13.352C46.7466 10.1229 47.5887 8.17305 48.3069 7.05855C48.6674 6.49908 49.0026 6.14085 49.231 5.93152C49.3455 5.82659 49.434 5.75839 49.4864 5.72063C49.5127 5.70174 49.5299 5.69043 49.5369 5.68595C49.5404 5.6837 49.5414 5.68316 49.5396 5.68422C49.5387 5.68476 49.5372 5.68569 49.5349 5.68701C49.5338 5.68768 49.5325 5.68843 49.531 5.68929C49.5303 5.68972 49.5295 5.69017 49.5286 5.69064C49.5282 5.69088 49.5276 5.69126 49.5274 5.69137C49.5267 5.69175 49.526 5.69214 49.0316 4.82293C48.5371 3.95371 48.5364 3.95411 48.5357 3.95452C48.5355 3.95466 48.5348 3.95508 48.5343 3.95537C48.5332 3.95595 48.5322 3.95655 48.5311 3.95719C48.5289 3.95847 48.5265 3.95985 48.5239 3.96136C48.5188 3.96437 48.5129 3.96785 48.5064 3.97181C48.4932 3.97972 48.4773 3.98956 48.4588 4.00142C48.4217 4.02515 48.3741 4.057 48.3175 4.09781C48.2041 4.17945 48.0546 4.29688 47.8799 4.45688C47.5301 4.77739 47.0826 5.26613 46.6257 5.97522C45.709 7.39782 44.7771 9.6714 44.487 13.1875L46.4802 13.352ZM49.4155 3.89957L38.0094 -0.84304L37.2416 1.00368L48.6477 5.74629L49.4155 3.89957ZM37.6255 -0.919678H24.9251V1.08032H37.6255V-0.919678ZM24.9251 -0.919678H24.9249V1.08032H24.9251V-0.919678ZM12.2244 1.08032H24.9249V-0.919678H12.2244V1.08032Z" fill="#6B778B" mask="url(#path-1-inside-1_46_8)"/>
</svg>
