<svg width="16" height="58" viewBox="0 0 16 58" fill="none" xmlns="http://www.w3.org/2000/svg">
<path d="M9.8736 3.82416L11.337 1.55984L13.3879 3.24413L14.855 7.2703L15.1962 14.1967L14.855 21.7372L13.9679 25.081L12.6372 34.8394L11.7501 45.0072L10.863 56.4374L8.84987 56.9834L4.17541 57.2904L0.968262 56.2327V51.8653L1.82119 39.8209L3.08356 28.5613L5.23314 18.0864L7.07569 10.58L9.8736 3.82416Z" fill="#FFFFFF"/>
<path d="M11.6932 1.30445C11.6932 1.30445 9.1973 0.966732 4.95447 19.2277C0.711645 37.4886 1.08554 56.3143 1.08554 56.3143C1.08554 56.3143 3.92472 57.5544 7.32535 57.1314C10.726 56.7084 10.8204 56.5678 10.8204 56.5678C10.8204 56.5678 12.4741 34.3052 13.5039 27.8798C14.5336 21.4544 14.9075 18.157 14.9075 18.157" stroke="#6B778B" stroke-miterlimit="10"/>
<path d="M14.8962 18.3341C14.8962 18.3341 16.7681 4.98612 11.5054 1.37866" stroke="#6B778B" stroke-miterlimit="10"/>
<path d="M1.04346 55.2427C1.04346 55.2427 4.68314 56.7076 10.8825 55.4497" stroke="#6B778B" stroke-miterlimit="10"/>
</svg>
